<?xml version="1.0" encoding="utf-8"?>
<svg xmlns="http://www.w3.org/2000/svg" width="64" height="83" viewBox="0 0 64 83" fill="none">
<path d="M46.4762 16.2956C47.8486 14.427 50.5932 10.4423 52.6179 7.44808C54.6201 4.45389 56.3524 2 56.4648 2C56.5773 2 56.6673 2.09005 56.6673 2.22513C56.6673 2.33769 56.3299 3.08061 55.1375 5.26435L51.4481 11.9956C51.3581 11.9281 50.6382 13.1438 49.8283 14.6521C49.0409 16.1605 47.7136 18.8845 46.8812 20.6856C46.0713 22.4641 44.9915 24.9855 44.4965 26.2462C44.0241 27.5069 43.3717 29.5331 43.0567 30.7487C42.7418 31.9644 42.4943 33.3827 42.4943 33.9005C42.4943 34.4183 42.6968 35.2288 42.9218 35.7015C43.1692 36.1743 43.7316 36.8947 44.2266 37.345C44.699 37.7727 45.4414 38.358 45.8688 38.6282C46.3188 38.8983 47.2636 39.3261 48.006 39.5962C48.7484 39.8439 50.3232 40.2716 51.493 40.4967C52.6854 40.7444 55.5425 41.0596 57.8597 41.2172C60.4468 41.3973 62.0441 41.5774 61.9991 41.7349C61.9541 41.8475 61.4366 41.9826 60.8292 42.0051C60.2218 42.0276 58.0846 42.1627 56.1049 42.2978C54.1252 42.4328 51.3581 42.748 49.9183 42.9957C48.501 43.2208 46.7237 43.581 45.9813 43.7611C45.2389 43.9637 43.8216 44.3689 42.8318 44.6841C41.8419 44.9993 40.0872 45.6747 38.8948 46.1925C37.725 46.6877 36.2177 47.4307 35.5203 47.8134C34.8454 48.2186 33.743 48.984 33.0456 49.5243C32.3707 50.0646 31.1109 51.1678 30.2785 51.9557C29.4236 52.7662 27.6914 54.5897 26.4316 56.0305C25.1717 57.4488 23.327 59.6326 22.3371 60.8708C21.3473 62.109 19.6825 64.2702 18.6477 65.711C17.5903 67.1293 15.903 69.4481 14.9132 70.8889C13.9008 72.3072 11.9211 75.2564 10.4813 77.4626C9.04151 79.6689 7.75919 81.4699 7.62421 81.4699C7.51173 81.4699 7.42174 81.3348 7.42174 81.1772C7.42174 81.0196 8.3891 79.2186 9.58143 77.1925C10.7738 75.1438 12.2811 72.5549 12.9335 71.4517C13.5859 70.3261 14.3733 68.8628 14.6882 68.1874C14.9807 67.4895 15.8356 65.666 16.578 64.1351C17.3203 62.5817 18.4902 59.9027 19.1876 58.1692C19.8625 56.4358 20.6949 54.0494 21.0098 52.8787C21.3248 51.6856 21.5947 50.1772 21.5947 49.5018C21.5947 48.5113 21.4598 48.061 20.9648 47.2956C20.6274 46.7778 19.885 45.9898 19.3226 45.5396C18.7826 45.1119 17.6128 44.459 16.7354 44.0988C15.8805 43.7386 14.2158 43.2433 13.0235 42.9957C11.8536 42.748 9.58144 42.4328 7.96166 42.2978C6.36439 42.1627 4.36217 42.0501 3.52979 42.0501C2.47243 42.0726 2 41.9826 2 41.78C2 41.5774 3.21483 41.4198 6.56686 41.2172C9.06401 41.0596 12.326 40.7444 13.8108 40.4967C15.2956 40.2491 17.2754 39.8439 18.1977 39.5962C19.1426 39.3486 20.8074 38.8533 21.9097 38.4931C23.0345 38.1329 24.8118 37.435 25.8466 36.9622C26.904 36.467 28.4788 35.6115 29.3337 35.0487C30.211 34.4858 31.7183 33.3377 32.7082 32.4822C33.6755 31.6267 35.6553 29.6006 37.0951 27.9797C38.5124 26.3588 40.6721 23.8148 41.8419 22.3515C43.0342 20.8657 45.1264 18.1416 46.4762 16.2956Z" stroke="#151515" stroke-width="2.70578"/>
</svg>