<?xml version="1.0" encoding="utf-8"?>
<svg xmlns="http://www.w3.org/2000/svg" width="96" height="98" viewBox="0 0 96 98" fill="none">
<path d="M51.5674 5.27832C51.1554 0.953035 44.8446 0.953022 44.4326 5.27832C43.831 11.5926 35.5257 13.4877 32.2441 8.05957C30.0313 4.39987 24.4867 6.99629 25.75 10.9658L25.8154 11.1562C28.0129 17.1062 21.3527 22.4169 16.041 18.9502C12.4594 16.613 8.59017 21.3584 11.4512 24.3867L11.5928 24.5293C16.1543 28.9366 12.4578 36.6117 6.16797 35.793C1.85968 35.2323 0.455377 41.3847 4.58008 42.749C10.6024 44.7405 10.6024 53.2595 4.58008 55.251C0.455354 56.6153 1.8597 62.7677 6.16797 62.207C12.3597 61.401 16.0379 68.8257 11.7998 73.2617L11.5928 73.4707C8.46807 76.4895 12.4026 81.424 16.041 79.0498C21.3527 75.5831 28.0129 80.8938 25.8154 86.8438C24.31 90.9193 29.9962 93.6582 32.2441 89.9404C35.5257 84.5123 43.831 86.4074 44.4326 92.7217C44.8446 97.047 51.1554 97.047 51.5674 92.7217C52.1596 86.5059 60.217 84.5721 63.5986 89.6914L63.7559 89.9404C66.0038 93.6582 71.69 90.9193 70.1846 86.8438C67.9871 80.8938 74.6473 75.5831 79.959 79.0498C83.5974 81.424 87.5319 76.4895 84.4072 73.4707C79.8457 69.0634 83.5422 61.3883 89.832 62.207C94.0729 62.7589 95.5 56.806 91.6094 55.3184L91.4199 55.251C85.4918 53.2907 85.3989 45.0058 91.1416 42.8477L91.4199 42.749C95.5446 41.3847 94.1403 35.2323 89.832 35.793C83.5422 36.6117 79.8457 28.9366 84.4072 24.5293C87.5319 21.5105 83.5974 16.576 79.959 18.9502C74.6472 22.4169 67.9871 17.1062 70.1846 11.1562C71.6666 7.14411 66.1791 4.42731 63.8633 7.89062L63.7559 8.05957C60.4743 13.4877 52.169 11.5926 51.5674 5.27832Z" stroke="#151515" stroke-width="3"/>
</svg>