<?xml version="1.0" encoding="utf-8"?>
<svg xmlns="http://www.w3.org/2000/svg" width="82" height="82" viewBox="0 0 82 82" fill="none">
<circle cx="40.6276" cy="40.6276" r="39.2733" stroke="#151515" stroke-width="2.7085"/>
<path d="M57.2771 54.8926L59.9412 57.6677" stroke="#151515" stroke-width="1.33205" stroke-linecap="round"/>
<path d="M61.4986 53.7826L64.1627 56.5577" stroke="#151515" stroke-width="1.33205" stroke-linecap="round"/>
<path d="M65.0464 51.7843L67.7105 54.5594" stroke="#151515" stroke-width="1.33205" stroke-linecap="round"/>
<path d="M13.5425 42.571L16.6506 41.35" stroke="#151515" stroke-width="1.33205" stroke-linecap="round"/>
<path d="M16.2087 45.4573L19.3168 44.2363" stroke="#151515" stroke-width="1.33205" stroke-linecap="round"/>
<path d="M19.9823 47.8991L23.0904 46.6781" stroke="#151515" stroke-width="1.33205" stroke-linecap="round"/>
<path d="M26.1737 42.3436C23.9368 41.2166 20.2195 38.4328 21.2739 34.9053C22.5563 30.6149 27.4325 31.1992 31.2865 33.1021C34.4821 34.6799 38.7428 36.7085 36.3994 41.3293C34.53 45.0154 28.4105 43.4706 26.1737 42.3436Z" stroke="#151515" stroke-width="1.33205"/>
<path d="M27.5603 39.7135C26.473 39.1918 24.666 37.903 25.1785 36.2699C25.8019 34.2836 28.1723 34.5541 30.0457 35.4351C31.5991 36.1655 33.6703 37.1047 32.5312 39.2439C31.6224 40.9505 28.6477 40.2353 27.5603 39.7135Z" fill="#151515" stroke="#151515" stroke-width="1.33205"/>
<path d="M65.5408 35.4235L48.8044 35.7937C48.1346 35.8085 47.5994 36.3612 47.5994 37.0312C47.5994 37.6409 48.0452 38.1638 48.6482 38.2546L65.1023 40.7328C65.7998 40.8379 66.4429 40.3372 66.5122 39.6353L66.7944 36.7765C66.867 36.0408 66.28 35.4071 65.5408 35.4235Z" fill="#151515" stroke="#151515" stroke-width="0.616156"/>
<path d="M62.2255 43.2809L48.778 40.9107C48.1497 40.8 47.5494 41.2157 47.432 41.8428C47.3219 42.4312 47.6761 43.0071 48.2509 43.1743L61.3264 46.9774C61.9921 47.171 62.6864 46.7775 62.8624 46.1069L63.2036 44.8074C63.3865 44.1105 62.9351 43.406 62.2255 43.2809Z" fill="#151515" stroke="#151515" stroke-width="0.616156"/>
<path d="M40.7031 33.5054L40.3965 34.1186C40.0941 34.7233 39.361 34.9715 38.7535 34.6748L23.3094 27.1331C22.5795 26.7767 22.3881 25.8239 22.9236 25.2132L25.0588 22.7784C25.4707 22.3087 26.1689 22.2215 26.6836 22.5755L40.2991 31.9389C40.8057 32.2872 40.978 32.9556 40.7031 33.5054Z" fill="#151515" stroke="#151515" stroke-width="0.616156"/>
<path d="M37.6318 51.75C37.6318 51.75 41.7376 55.4276 42.96 53.5261C43.9591 51.972 39.4228 50.196 41.517 50.196C43.2715 50.196 44.6794 50.64 45.1801 49.2213C45.8786 47.2423 40.4069 46.5328 40.4069 46.5328" stroke="#151515" stroke-width="1.33205" stroke-linecap="round"/>
</svg>