<?xml version="1.0" encoding="utf-8"?>
<svg xmlns="http://www.w3.org/2000/svg" width="82" height="82" viewBox="0 0 82 82" fill="none">
<circle cx="40.6276" cy="40.6276" r="39.2733" stroke="#151515" stroke-width="2.7085"/>
<path d="M61.3512 45.7101L71.3328 39.7243" stroke="#151515" stroke-width="1.38258" stroke-linecap="round"/>
<path d="M14.9356 47.6907L25.3316 51.6068" stroke="#151515" stroke-width="1.38258" stroke-linecap="round"/>
<path d="M25.4612 46.7251C22.8715 46.6242 18.3249 45.744 18.4626 42.6166C18.6302 38.8128 23.776 37.568 28.2275 37.7114C31.9184 37.8304 36.8197 37.9302 35.6545 42.3627C34.725 45.8987 28.0508 46.826 25.4612 46.7251Z" stroke="#151515" stroke-width="1.38258"/>
<path d="M26.1931 44.1626C24.9545 44.1273 22.7832 43.7372 22.8633 42.2771C22.9608 40.5013 25.4284 39.8969 27.5576 39.9437C29.323 39.9824 31.6675 40.0067 31.0899 42.0805C30.6291 43.7348 27.4316 44.1979 26.1931 44.1626Z" fill="#151515" stroke="#151515" stroke-width="1.38258"/>
<path d="M56.5807 42.0507C54.0154 42.7571 49.2385 43.3509 48.1584 40.4336C46.8447 36.8853 51.3809 34.153 55.7789 32.9112C59.4255 31.8816 64.2452 30.4608 64.8299 34.895C65.2964 38.4322 59.1461 41.3443 56.5807 42.0507Z" stroke="#151515" stroke-width="1.38258"/>
<path d="M56.5136 39.7256C55.1812 40.0924 52.7002 40.4009 52.1392 38.8857C51.4569 37.0428 53.8129 35.6237 56.0971 34.9787C57.991 34.444 60.4943 33.7061 60.798 36.009C61.0403 37.8462 57.8459 39.3587 56.5136 39.7256Z" fill="#151515" stroke="#151515" stroke-width="1.38258"/>
<path d="M61.7588 25.264L45.7793 33.9353C45.1584 34.2722 44.9282 35.0487 45.2651 35.6696L45.9786 36.9844C46.3004 37.5774 47.0276 37.8185 47.64 37.5351L64.1734 29.8847C64.8437 29.5746 65.1127 28.7629 64.7605 28.1138L63.493 25.7781C63.1561 25.1572 62.3797 24.927 61.7588 25.264Z" fill="#151515" stroke="#151515" stroke-width="0.639531"/>
<path d="M37.028 36.1647L36.6395 38.0307C36.5096 38.6549 35.9397 39.0881 35.3034 39.0463L18.9107 37.9689C18.1523 37.919 17.6044 37.2227 17.7343 36.4739L18.241 33.5538C18.3582 32.8782 18.9874 32.4152 19.6673 32.5042L35.9419 34.6358C36.6798 34.7324 37.1797 35.4362 37.028 36.1647Z" fill="#151515" stroke="#151515" stroke-width="0.639531"/>
<path d="M37.3955 53.2452C37.3955 53.2452 38.291 46.6324 41.0533 47.0825C41.9864 47.2345 42.8508 48.1467 43.4382 48.9337C43.7056 49.292 44.4013 49.1707 44.5361 48.7445C44.798 47.9162 45.2405 46.9457 45.9437 46.5258C48.2253 45.1635 51.2399 50.798 51.2399 50.798" stroke="#151515" stroke-width="1.38258" stroke-linecap="round"/>
</svg>