<?xml version="1.0" encoding="utf-8"?>
<svg xmlns="http://www.w3.org/2000/svg" width="823" height="639" viewBox="0 0 823 639" fill="none">
<path d="M197 457.91C122.882 463.524 70.2465 480.789 69.5001 421.41C68.7536 362.031 166.773 307.424 238.5 315.91C297.973 322.946 356.5 355.91 347.5 428.41C341.052 480.354 271.119 452.296 197 457.91Z" fill="#EEEEEE" stroke="#151515" stroke-width="3"/>
<path d="M650.904 457.91C576.786 463.524 524.151 480.789 523.404 421.41C522.658 362.031 620.677 307.424 692.404 315.91C751.877 322.946 810.404 355.91 801.404 428.41C794.956 480.354 725.023 452.296 650.904 457.91Z" fill="#EEEEEE" stroke="#151515" stroke-width="3"/>
<path d="M245.394 419.322C225.669 415.393 191.257 402.188 193.279 374.295C195.738 340.37 235.38 335.212 269.295 341.696C297.416 347.073 334.775 353.691 324.511 392.091C316.323 422.725 265.119 423.251 245.394 419.322Z" fill="#151515" stroke="#151515" stroke-width="21.7077"/>
<path d="M698.394 422.322C678.669 418.393 644.257 405.188 646.279 377.295C648.738 343.37 688.38 338.212 722.295 344.696C750.416 350.073 787.775 356.691 777.511 395.091C769.323 425.725 718.119 426.251 698.394 422.322Z" fill="#151515" stroke="#151515" stroke-width="21.7077"/>
<path d="M603.446 147.589L497.186 306.039C491.008 315.251 493.468 327.726 502.679 333.904L507.901 337.406C516.691 343.301 528.548 341.362 535.002 332.974L651.597 181.453C658.674 172.256 656.505 158.991 646.866 152.527L631.31 142.095C622.099 135.918 609.624 138.377 603.446 147.589Z" fill="#151515" stroke="#151515" stroke-width="10.0412"/>
<path d="M371.513 318.177L358.587 329.736C350.61 336.869 338.44 336.494 330.918 328.883L200.698 197.134C192.798 189.141 192.994 176.221 201.134 168.472L223.07 147.588C231.394 139.662 244.659 140.327 252.149 149.045L373.359 290.12C380.486 298.415 379.665 310.887 371.513 318.177Z" fill="#151515" stroke="#151515" stroke-width="10.0412"/>
<path d="M481.921 396.586L421.351 383.886C418.826 383.357 416.406 385.058 416.228 387.632C415.327 400.666 415.65 436.353 445.832 438.94C472.109 441.192 482.267 412.692 485.193 401.7C485.816 399.361 484.291 397.083 481.921 396.586Z" stroke="#151515" stroke-width="3"/>
</svg>