<?xml version="1.0" encoding="utf-8"?>
<svg xmlns="http://www.w3.org/2000/svg" width="1841" height="277" viewBox="0 0 1841 277" fill="none">
<path d="M1369.74 178.164H1336.66L1285.58 271.456H1205.18L1350.6 6.21509H1454.08C1521.4 6.21509 1563.6 21.9466 1545.89 76.4581C1529.6 126.579 1491.69 153.286 1448.05 166.823L1457.91 271.456H1375.97L1369.74 178.164ZM1368.52 120.36H1403.14C1424.3 120.36 1447.74 114.506 1455.71 89.9945C1460.58 74.9947 1451.68 68.0435 1431.68 68.0435H1397.06L1368.52 120.36Z" fill="#FF3A3A"/>
<path d="M1183.2 271.456H1102.8L1248.23 6.21509H1328.62L1183.2 271.456Z" fill="#FF3A3A"/>
<path d="M1226.73 6.21509L1081.3 271.456H1000.91L1055.79 171.213H960.004L905.122 271.456H824.724L970.146 6.21509H1050.54L996.403 105.36H1092.19L1146.33 6.21509H1226.73Z" fill="#FF3A3A"/>
<path d="M860.311 96.2183C833.858 74.6332 802.356 66.2186 778.506 66.2186C758.118 66.2186 743.109 70.9747 740.256 79.7551C737.522 88.1696 744.88 95.1207 757.806 99.1451L794.246 110.121C836.365 122.559 868.946 143.047 854.681 186.949C835.424 246.216 769.129 276.216 704.888 276.216C642.955 276.216 602.975 257.192 579.159 233.412L642.178 175.607C664.337 199.753 693.853 210.729 730.397 210.729C749.247 210.729 765.913 205.607 769.36 194.997C772.927 184.022 759.176 177.803 736.962 171.583L709.691 163.169C674.286 152.559 645.084 128.779 658.992 85.9745C675.039 36.5849 730.395 0 803.484 0C865.032 0 903.823 22.6826 920.995 37.3166L860.311 96.2183Z" fill="#FF3A3A"/>
<path d="M403.548 6.21509L258.126 271.456H177.729L232.611 171.213H136.826L81.9443 271.456H1.54691L146.969 6.21509H227.366L173.226 105.36H269.01L323.151 6.21509H403.548Z" fill="#FF3A3A"/>
<path d="M562.948 271.459H477.55L486.549 227.191H442.252C445.391 222.951 449.608 217.531 452.254 214.247C455.287 210.48 460.941 203.836 464.802 199.521C468.663 195.138 473.972 189.59 476.592 187.124C479.143 184.727 483.004 181.371 485.072 179.727C487.209 178.084 490.588 175.755 492.656 174.523C494.793 173.358 499.412 171.098 502.998 169.591C506.651 168.016 512.029 165.962 515.063 165.003C518.096 164.044 522.44 162.81 524.715 162.194C526.991 161.646 532.437 160.551 536.78 159.866C541.193 159.112 549.674 158.153 555.741 157.743C561.808 157.332 568.358 156.92 570.22 156.852C572.081 156.783 573.666 156.372 573.804 156.03C573.94 155.551 569.046 155.002 561.119 154.455C554.017 153.975 545.261 153.016 541.607 152.263C538.022 151.578 533.195 150.277 530.92 149.524C528.645 148.702 525.749 147.401 524.37 146.579C523.06 145.757 520.785 143.976 519.338 142.675C517.821 141.305 516.097 139.113 515.338 137.675C514.649 136.236 514.029 133.771 514.029 132.196C514.029 130.621 514.787 126.306 515.753 122.607C516.718 118.909 518.718 112.744 520.165 108.909C521.682 105.073 524.992 97.4029 527.473 91.9924C530.024 86.5132 534.092 78.226 536.505 73.6372C538.986 69.0499 541.192 65.3522 541.469 65.555L552.776 45.0767C556.429 38.4343 557.464 36.1738 557.465 35.8308C557.465 35.4199 557.188 35.1454 556.844 35.1454C556.495 35.151 551.188 42.6145 545.054 51.7201C538.849 60.8293 530.438 72.952 526.232 78.6367C522.095 84.2529 515.683 92.5403 512.029 97.0606C508.444 101.513 501.825 109.252 497.482 114.183C493.069 119.115 487.002 125.278 484.037 127.881C481.004 130.483 476.384 133.977 473.696 135.689C471.076 137.401 466.249 140.004 463.009 141.51C459.838 142.949 454.392 145.071 450.944 146.167C447.566 147.263 442.463 148.77 439.567 149.524C436.741 150.277 430.674 151.509 426.124 152.263C421.574 153.016 411.576 153.975 403.923 154.455C393.65 155.071 389.926 155.551 389.926 156.167C389.927 156.784 391.375 157.058 394.615 156.989C397.167 156.989 403.303 157.332 408.198 157.743C413.162 158.153 420.125 159.112 423.71 159.866C427.364 160.619 432.467 162.125 435.087 163.221C437.775 164.317 441.36 166.304 443.015 167.605C444.738 168.975 447.013 171.372 448.048 172.947C449.564 175.276 449.978 176.646 449.978 179.66C449.978 181.714 449.151 186.303 448.186 189.933C447.221 193.494 444.669 200.754 442.601 206.028C440.463 211.302 436.879 219.451 434.604 224.177C434.126 225.156 433.633 226.174 433.143 227.191H398.842L359.839 271.459H272.903L517.956 6.21802H606.046L562.948 271.459Z" fill="#FF3A3A"/>
<path d="M1752.8 271.461H1667.4L1676.4 227.193H1632.85C1635.08 224.287 1637.34 221.406 1638.99 219.357C1642.02 215.591 1647.67 208.948 1651.53 204.633C1655.4 200.25 1660.7 194.701 1663.32 192.236C1665.88 189.839 1669.74 186.483 1671.8 184.839C1673.94 183.195 1677.32 180.866 1679.39 179.633C1681.53 178.469 1686.15 176.209 1689.73 174.702C1693.39 173.127 1698.76 171.072 1701.8 170.113C1704.83 169.154 1709.17 167.922 1711.45 167.306C1713.72 166.758 1719.17 165.662 1723.51 164.977C1727.93 164.224 1736.41 163.265 1742.47 162.854C1748.54 162.443 1755.09 162.032 1756.95 161.963C1758.81 161.895 1760.4 161.484 1760.54 161.141C1760.68 160.662 1755.78 160.114 1747.85 159.566C1740.75 159.087 1731.99 158.128 1728.34 157.374C1724.75 156.689 1719.93 155.388 1717.65 154.635C1715.38 153.813 1712.48 152.511 1711.1 151.689C1709.79 150.867 1707.52 149.087 1706.07 147.786C1704.55 146.416 1702.83 144.224 1702.07 142.786C1701.38 141.348 1700.76 138.882 1700.76 137.307C1700.76 135.731 1701.52 131.417 1702.49 127.719C1703.45 124.02 1705.45 117.856 1706.9 114.02C1708.41 110.185 1711.72 102.515 1714.21 97.1039C1716.76 91.6248 1720.83 83.3366 1723.24 78.7478C1725.72 74.1592 1727.93 70.4612 1728.2 70.6666L1739.51 50.1882C1743.16 43.5468 1744.2 41.2859 1744.2 40.9424C1744.2 40.5314 1743.92 40.257 1743.58 40.257C1743.23 40.2573 1737.92 47.7228 1731.79 56.8317C1725.58 65.9408 1717.17 78.0637 1712.97 83.7483C1708.83 89.3643 1702.42 97.6509 1698.76 102.171C1698.31 102.728 1697.82 103.336 1697.29 103.983L1676.57 127.398C1674.28 129.722 1672.18 131.758 1670.77 132.992C1667.74 135.595 1663.12 139.087 1660.43 140.8C1657.81 142.512 1652.98 145.115 1649.74 146.622C1646.57 148.06 1641.12 150.183 1637.68 151.279C1634.3 152.375 1629.2 153.881 1626.3 154.635C1623.47 155.388 1617.41 156.621 1612.86 157.374C1608.31 158.128 1598.31 159.087 1590.66 159.566C1580.39 160.183 1576.66 160.662 1576.66 161.278C1576.66 161.894 1578.11 162.168 1581.35 162.1C1583.9 162.1 1590.04 162.443 1594.93 162.854C1599.89 163.265 1606.86 164.224 1610.44 164.977C1614.1 165.731 1619.2 167.237 1621.82 168.333C1624.51 169.429 1628.09 171.414 1629.75 172.716C1631.47 174.085 1633.75 176.483 1634.78 178.058C1636.3 180.387 1636.71 181.757 1636.71 184.77C1636.71 186.825 1635.88 191.414 1634.92 195.044C1633.95 198.606 1631.4 205.865 1629.33 211.139C1627.49 215.698 1624.56 222.406 1622.33 227.193H1588.69L1549.69 271.461H1462.75L1707.8 6.22046H1795.9L1752.8 271.461Z" fill="#FF3A3A"/>
</svg>