<?xml version="1.0" encoding="utf-8"?>
<svg xmlns="http://www.w3.org/2000/svg" width="48" height="48" viewBox="0 0 48 48" fill="none">
<rect x="0.5" y="0.5" width="47" height="47" rx="23.5" stroke="#151515" stroke-dasharray="3.15 3.15"/>
<path fill-rule="evenodd" clip-rule="evenodd" d="M29.3333 12C31.1014 12 32.7971 12.7024 34.0474 13.9526C35.2976 15.2029 36 16.8986 36 18.6667V29.3333C36 31.1014 35.2976 32.7971 34.0474 34.0474C32.7971 35.2976 31.1014 36 29.3333 36H18.6667C16.8986 36 15.2029 35.2976 13.9526 34.0474C12.7024 32.7971 12 31.1014 12 29.3333V18.6667C12 16.8986 12.7024 15.2029 13.9526 13.9526C15.2029 12.7024 16.8986 12 18.6667 12H29.3333ZM29.3333 14.6667H18.6667C17.6058 14.6667 16.5884 15.0881 15.8382 15.8382C15.0881 16.5884 14.6667 17.6058 14.6667 18.6667V29.3333C14.6667 30.3942 15.0881 31.4116 15.8382 32.1618C16.5884 32.9119 17.6058 33.3333 18.6667 33.3333H29.3333C30.3942 33.3333 31.4116 32.9119 32.1618 32.1618C32.9119 31.4116 33.3333 30.3942 33.3333 29.3333V18.6667C33.3333 17.6058 32.9119 16.5884 32.1618 15.8382C31.4116 15.0881 30.3942 14.6667 29.3333 14.6667ZM24 18.6667C25.4145 18.6667 26.771 19.2286 27.7712 20.2288C28.7714 21.229 29.3333 22.5855 29.3333 24C29.3333 25.4145 28.7714 26.771 27.7712 27.7712C26.771 28.7714 25.4145 29.3333 24 29.3333C22.5855 29.3333 21.229 28.7714 20.2288 27.7712C19.2286 26.771 18.6667 25.4145 18.6667 24C18.6667 22.5855 19.2286 21.229 20.2288 20.2288C21.229 19.2286 22.5855 18.6667 24 18.6667ZM24 21.3333C23.2928 21.3333 22.6145 21.6143 22.1144 22.1144C21.6143 22.6145 21.3333 23.2928 21.3333 24C21.3333 24.7072 21.6143 25.3855 22.1144 25.8856C22.6145 26.3857 23.2928 26.6667 24 26.6667C24.7072 26.6667 25.3855 26.3857 25.8856 25.8856C26.3857 25.3855 26.6667 24.7072 26.6667 24C26.6667 23.2928 26.3857 22.6145 25.8856 22.1144C25.3855 21.6143 24.7072 21.3333 24 21.3333ZM30 16.6667C30.3536 16.6667 30.6928 16.8071 30.9428 17.0572C31.1929 17.3072 31.3333 17.6464 31.3333 18C31.3333 18.3536 31.1929 18.6928 30.9428 18.9428C30.6928 19.1929 30.3536 19.3333 30 19.3333C29.6464 19.3333 29.3072 19.1929 29.0572 18.9428C28.8071 18.6928 28.6667 18.3536 28.6667 18C28.6667 17.6464 28.8071 17.3072 29.0572 17.0572C29.3072 16.8071 29.6464 16.6667 30 16.6667Z" fill="#151515"/>
</svg>